<?xml version="1.0" encoding="UTF-8"?>
<svg id="Ebene_1" data-name="Ebene 1" xmlns="http://www.w3.org/2000/svg" viewBox="0 0 696.28 223.89">
  <defs>
    <style>
      .cls-1, .cls-2, .cls-3, .cls-4, .cls-5, .cls-6, .cls-7, .cls-8, .cls-9, .cls-10, .cls-11, .cls-12 {
        fill: none;
      }

      .cls-2 {
        stroke: #f9b104;
      }

      .cls-2, .cls-3, .cls-4, .cls-5, .cls-6, .cls-7, .cls-8, .cls-9, .cls-10, .cls-11, .cls-12 {
        stroke-miterlimit: 10;
        stroke-width: 1.12px;
      }

      .cls-3 {
        stroke: #168544;
      }

      .cls-4 {
        stroke: #19233f;
      }

      .cls-5 {
        stroke: #3f758f;
      }

      .cls-6 {
        stroke: #8c9fb1;
      }

      .cls-7 {
        stroke: #005fa8;
      }

      .cls-8 {
        stroke: #e97721;
      }

      .cls-9 {
        stroke: #971b30;
      }

      .cls-10 {
        stroke: #7ab729;
      }

      .cls-11 {
        stroke: #2fb1e7;
      }

      .cls-12 {
        stroke: #c6143d;
      }
    </style>
  </defs>
  <g>
    <path class="cls-5" d="m719.65,163.71c-232.81-103.95-194.07-15.42-322.23,0-202.74,24.39-121.89-193.31-257.93-67.35C60.92,169.11-9.5,223.46-109.77,174.31"/>
    <path class="cls-3" d="m-101.12,168.54c108.19,54.88,173.14-6.36,252.34-72.88,136.31-115.14,58.18,97.4,256.09,72.43,128.67-16.52,88.4-108.33,311.68-16.41"/>
    <path class="cls-11" d="m-92.47,162.76c116.1,60.61,175.75-7.31,255.41-67.82,136.85-103.94,61.17,103.07,254.25,77.52,129.18-17.62,87.37-112.72,301.13-32.82"/>
    <path class="cls-9" d="m-83.82,156.99c124.01,66.33,178.24-8.38,258.49-62.75C311.86,1.28,238.89,203.49,427.07,176.85c129.74-18.36,86.34-117.1,290.58-49.23"/>
    <path class="cls-8" d="m-75.17,151.22c131.92,72.06,180.71-9.47,261.56-57.68,137.51-82,67.24,115,250.57,87.7,130.26-19.4,85.31-121.48,280.02-65.64"/>
    <path class="cls-4" d="m-66.52,145.45c139.83,77.78,183.16-10.58,264.64-52.62,137.77-71.09,70.24,120.7,248.73,92.79,130.78-20.46,84.28-125.86,269.47-82.05"/>
    <path class="cls-6" d="m-57.87,139.68c147.74,83.51,185.59-11.71,267.71-47.55,138-60.22,73.23,126.37,246.88,97.87,131.3-21.55,83.25-130.24,258.92-98.46"/>
    <path class="cls-10" d="m-49.22,133.91c155.65,89.23,188-12.89,270.79-42.49,138.2-49.41,76.22,131.99,245.04,102.96,131.81-22.67,82.22-134.63,248.37-114.87"/>
    <path class="cls-7" d="m-40.57,128.13c163.57,94.96,190.4-14.1,273.86-37.42,138.38-38.67,79.19,137.58,243.2,108.05,132.31-23.82,81.2-139.01,237.82-131.28"/>
    <path class="cls-12" d="m-31.92,122.36c171.48,100.68,192.79-15.35,276.94-32.36,138.57-28,82.17,143.12,241.36,113.14,132.81-25.01,80.17-143.39,227.26-147.69"/>
    <path class="cls-2" d="m-23.27,116.59c179.39,106.41,195.2-16.66,280.02-27.29,138.77-17.4,85.09,148.42,239.52,118.23,133.26-26.42,79.14-147.77,216.71-164.09"/>
    <path class="cls-4" d="m-14.62,110.82c187.3,112.13,197.63-18,283.09-22.22,139-6.87,88.08,154.09,237.68,123.31,133.77-27.52,78.11-152.15,206.16-180.5"/>
  </g>
  <rect class="cls-1" x="-262" y="6.89" width="1133.76" height="1133.76"/>
</svg>