<?xml version="1.0" encoding="UTF-8"?>
<svg id="Ebene_1" data-name="Ebene 1" xmlns="http://www.w3.org/2000/svg" viewBox="0 0 709.28 224.89">
  <defs>
    <style>
      .cls-1, .cls-2, .cls-3, .cls-4, .cls-5, .cls-6, .cls-7, .cls-8, .cls-9, .cls-10, .cls-11, .cls-12 {
        fill: none;
      }

      .cls-2 {
        stroke: #f9b104;
      }

      .cls-2, .cls-3, .cls-4, .cls-5, .cls-6, .cls-7, .cls-8, .cls-9, .cls-10, .cls-11, .cls-12 {
        stroke-miterlimit: 10;
        stroke-width: 1.12px;
      }

      .cls-3 {
        stroke: #168544;
      }

      .cls-4 {
        stroke: #19233f;
      }

      .cls-5 {
        stroke: #3f758f;
      }

      .cls-6 {
        stroke: #8c9fb1;
      }

      .cls-7 {
        stroke: #005fa8;
      }

      .cls-8 {
        stroke: #e97721;
      }

      .cls-9 {
        stroke: #971b30;
      }

      .cls-10 {
        stroke: #7ab729;
      }

      .cls-11 {
        stroke: #2fb1e7;
      }

      .cls-12 {
        stroke: #c6143d;
      }
    </style>
  </defs>
  <g>
    <path class="cls-11" d="m813.75,128.07c-142.73-61.84-242.3,12.93-346.73,19.5-104.43,6.57-166.55-66.09-281.77-59.61S23.56,176-78.07,190.1"/>
    <path class="cls-4" d="m-70.79,183.39c103.94-24.8,152.37-85.21,264.75-90.16,112.38-4.95,174.6,47.32,277.96,42.24,103.37-5.08,196.04-57.9,333.11.68"/>
    <path class="cls-10" d="m-63.52,176.67C42.73,141.18,93.13,101.91,202.67,98.49c109.53-3.42,171.85,28.47,274.15,24.88,102.3-3.59,188.08-34.46,319.48,20.86"/>
    <path class="cls-2" d="m-56.24,169.96C52.31,123.77,104.69,105.64,211.38,103.76c106.69-1.89,169.1,9.61,270.34,7.51,101.24-2.1,180.13-11.02,305.85,41.03"/>
    <path class="cls-3" d="m-48.96,163.25c110.85-56.89,165.21-53.87,269.05-54.23,103.85-.35,166.35-9.25,266.53-9.85s172.17,12.42,292.22,61.21"/>
    <path class="cls-4" d="m-41.69,156.53c113.16-67.59,169.49-43.42,270.49-42.25,101,1.17,163.61-28.11,262.72-27.22,99.12.89,164.21,35.86,278.6,81.39"/>
    <path class="cls-12" d="m-34.41,149.82c115.46-78.28,173.77-32.98,271.92-30.27,98.16,2.71,160.86-46.96,258.91-44.58,98.06,2.38,156.26,59.3,264.97,101.57"/>
    <path class="cls-6" d="m-27.13,143.1c117.77-88.98,178.04-22.53,273.36-18.29,95.31,4.24,158.11-65.82,255.1-61.95,96.99,3.88,148.3,82.74,251.34,121.74"/>
    <path class="cls-8" d="m-19.86,136.39c120.07-99.68,182.32-12.08,274.79-6.31,92.47,5.77,155.36-84.68,251.29-79.31,95.93,5.37,140.35,106.18,237.72,141.92"/>
    <path class="cls-7" d="m-12.58,129.68c122.38-110.38,186.6-1.63,276.22,5.67,89.62,7.3,152.62-103.54,247.48-96.68,94.87,6.86,132.39,129.61,224.09,162.1"/>
    <path class="cls-5" d="m-5.31,122.96c124.68-121.07,190.88,8.81,277.66,17.65S422.22,18.21,516.03,26.56c93.81,8.35,124.43,153.05,210.46,182.28"/>
    <path class="cls-9" d="m1.97,116.25c126.98-131.77,195.16,19.26,279.09,29.62,83.93,10.36,147.12-141.25,239.86-131.41,92.74,9.84,116.48,176.49,196.83,202.45"/>
  </g>
  <rect class="cls-1" x="-205" y="-437.11" width="1133.76" height="1133.76"/>
</svg>