<?xml version="1.0" encoding="UTF-8"?>
<svg id="Ebene_1" data-name="Ebene 1" xmlns="http://www.w3.org/2000/svg" viewBox="0 0 567.28 182.89">
  <defs>
    <style>
      .cls-1, .cls-2, .cls-3, .cls-4, .cls-5, .cls-6, .cls-7, .cls-8, .cls-9, .cls-10, .cls-11, .cls-12 {
        fill: none;
      }

      .cls-2 {
        stroke: #f9b104;
      }

      .cls-2, .cls-3, .cls-4, .cls-5, .cls-6, .cls-7, .cls-8, .cls-9, .cls-10, .cls-11, .cls-12 {
        stroke-miterlimit: 10;
        stroke-width: 1.12px;
      }

      .cls-3 {
        stroke: #168544;
      }

      .cls-4 {
        stroke: #19233f;
      }

      .cls-5 {
        stroke: #3f758f;
      }

      .cls-6 {
        stroke: #8c9fb1;
      }

      .cls-7 {
        stroke: #005fa8;
      }

      .cls-8 {
        stroke: #e97721;
      }

      .cls-9 {
        stroke: #971b30;
      }

      .cls-10 {
        stroke: #7ab729;
      }

      .cls-11 {
        stroke: #2fb1e7;
      }

      .cls-12 {
        stroke: #c6143d;
      }
    </style>
  </defs>
  <g>
    <path class="cls-7" d="m-8.42,43.9C134.66-11.19,199.01,100.39,288.1,126.01c89.1,25.62,165.12-56.56,263.66-29.27,98.54,27.29,114.53,138.74,198.93,173.47"/>
    <path class="cls-10" d="m-21.9,42.86C118.61,3.47,184.89,94.33,273.74,117.51c88.85,23.18,162.32-39.88,260.56-15.07,98.24,24.81,116.61,114.05,201.01,144.35"/>
    <path class="cls-12" d="m-35.39,41.82c137.94-23.7,206.15,46.44,294.76,67.18,88.61,20.75,159.51-23.19,257.47-.87,97.95,22.33,118.69,89.36,203.1,115.22"/>
    <path class="cls-4" d="m-48.87,40.79c135.38-8.01,205.51,41.41,293.88,59.72,88.37,18.31,156.71-6.51,254.37,13.33,97.66,19.85,120.77,64.68,205.19,86.09"/>
    <path class="cls-6" d="m-62.35,39.75c132.81,7.69,204.88,36.38,293,52.26,88.12,15.88,153.91,10.17,251.27,27.53,97.37,17.36,122.85,39.99,207.27,56.97"/>
    <path class="cls-5" d="m-75.84,38.72c130.24,23.38,204.24,31.35,292.12,44.79,87.88,13.44,151.1,26.85,248.18,41.73,97.07,14.88,124.93,15.3,209.36,27.84"/>
    <path class="cls-2" d="m-89.32,37.68c127.67,39.07,203.6,26.32,291.24,37.33,87.64,11.01,148.3,43.53,245.08,55.94,96.78,12.4,127.01-9.38,211.45-1.29"/>
    <path class="cls-11" d="m-102.8,36.65c125.11,54.76,202.97,21.29,290.36,29.86,87.39,8.57,145.5,60.21,241.99,70.14,96.49,9.92,129.09-34.07,213.53-30.41"/>
    <path class="cls-4" d="m-116.28,35.61C6.26,106.07,86.04,51.88,173.2,58.01c87.15,6.13,142.69,76.89,238.89,84.34,96.2,7.44,131.17-58.76,215.62-59.54"/>
    <path class="cls-3" d="m-129.77,34.58C-9.79,120.73,71.92,45.81,158.83,49.51c86.91,3.7,139.89,93.58,235.79,98.54,95.9,4.96,133.25-83.44,217.71-88.67"/>
    <path class="cls-8" d="m-143.25,33.54c117.41,101.84,201.05,6.2,287.72,7.46,86.67,1.26,137.09,110.26,232.7,112.74,95.61,2.48,135.33-108.13,219.8-117.79"/>
    <path class="cls-9" d="m-156.73,32.51c114.84,117.54,200.42,1.18,286.84,0,86.42-1.17,134.28,126.94,229.6,126.94S497.12,26.63,581.59,12.52"/>
  </g>
  <rect class="cls-1" x="-276" y="-678.11" width="1133.76" height="1133.76"/>
</svg>