<?xml version="1.0" encoding="UTF-8"?>
<svg id="Ebene_1" data-name="Ebene 1" xmlns="http://www.w3.org/2000/svg" viewBox="0 0 792.28 236.89">
  <defs>
    <style>
      .cls-1, .cls-2, .cls-3, .cls-4, .cls-5, .cls-6, .cls-7, .cls-8, .cls-9, .cls-10, .cls-11, .cls-12 {
        fill: none;
      }

      .cls-2 {
        stroke: #f9b104;
      }

      .cls-2, .cls-3, .cls-4, .cls-5, .cls-6, .cls-7, .cls-8, .cls-9, .cls-10, .cls-11, .cls-12 {
        stroke-miterlimit: 10;
        stroke-width: 1.12px;
      }

      .cls-3 {
        stroke: #168544;
      }

      .cls-4 {
        stroke: #19233f;
      }

      .cls-5 {
        stroke: #3f758f;
      }

      .cls-6 {
        stroke: #8c9fb1;
      }

      .cls-7 {
        stroke: #005fa8;
      }

      .cls-8 {
        stroke: #e97721;
      }

      .cls-9 {
        stroke: #971b30;
      }

      .cls-10 {
        stroke: #7ab729;
      }

      .cls-11 {
        stroke: #2fb1e7;
      }

      .cls-12 {
        stroke: #c6143d;
      }
    </style>
  </defs>
  <rect class="cls-1" x="-208" y="-997.11" width="1133.76" height="1133.76"/>
  <path class="cls-3" d="m789.74,120.35c-139.37-60.38-236.59,12.62-338.56,19.04-101.97,6.42-162.63-64.54-275.14-58.21-112.51,6.33-157.87,85.97-257.12,99.74"/>
  <path class="cls-6" d="m-74.03,175.02C28.91,150.34,77.17,92.06,187.95,87.34c110.78-4.72,172.18,45.72,274.26,40.88,102.08-4.83,193.01-55.67,327.86,1.71"/>
  <path class="cls-2" d="m-67,169.12C39.65,133.54,90.81,96.61,199.85,93.51c109.04-3.1,171.19,26.83,273.39,23.57,102.2-3.26,186.83-31.92,317.16,22.46"/>
  <path class="cls-12" d="m-59.96,163.22c110.35-46.49,164.41-62.05,271.72-63.54,107.31-1.49,170.2,7.92,272.51,6.25,102.31-1.68,180.65-8.17,306.45,43.21"/>
  <path class="cls-5" d="m-52.93,157.32c114.05-57.4,171.01-51.6,276.59-51.48,105.58.12,169.21-10.97,271.64-11.07,102.43-.1,174.47,15.59,295.74,63.95"/>
  <path class="cls-4" d="m-45.89,151.43c117.76-68.31,177.61-41.15,281.46-39.42,103.84,1.73,168.22-29.87,270.76-28.39,102.55,1.48,168.29,39.34,285.05,84.7"/>
  <path class="cls-8" d="m-38.86,145.53c121.46-79.21,184.21-30.7,286.32-27.35,102.11,3.34,167.23-48.77,269.89-45.71,102.66,3.06,162.11,63.09,274.34,105.45"/>
  <path class="cls-11" d="m-31.82,139.62c125.16-90.11,190.81-20.23,291.19-15.28,100.38,4.96,166.24-67.67,269.02-63.03s155.93,86.84,263.63,126.2"/>
  <path class="cls-10" d="m-24.79,133.72c128.87-101.02,197.42-9.78,296.06-3.21,98.64,6.57,165.25-86.57,268.14-80.35,102.89,6.22,149.75,110.59,252.93,146.95"/>
  <path class="cls-4" d="m-17.75,127.83c132.57-111.93,204.02.67,300.93,8.85,96.91,8.18,164.26-105.46,267.27-97.66,103.01,7.8,143.57,134.34,242.23,167.7"/>
  <path class="cls-9" d="m-10.72,121.93C125.56-.91,199.9,133.05,295.08,142.84c95.18,9.79,163.27-124.37,266.39-114.99,103.12,9.38,137.39,158.1,231.52,188.45"/>
  <path class="cls-7" d="m-3.68,116.03c139.98-133.75,217.22,21.57,310.66,32.97,93.44,11.4,162.28-143.26,265.52-132.3,103.24,10.96,131.2,181.85,220.81,209.19"/>
</svg>