<?xml version="1.0" encoding="UTF-8"?>
<svg id="Ebene_1" data-name="Ebene 1" xmlns="http://www.w3.org/2000/svg" xmlns:xlink="http://www.w3.org/1999/xlink" viewBox="0 0 1370 440">
  <defs>
    <style>
      .cls-3 {
        fill: #ffffff;
        opacity: .09;
      }
    </style>
  </defs>
    <path class="cls-3" d="m633.72,238.53c-.29-.97-.82-1.86-1.56-2.6-1.18-1.18-2.74-1.83-4.41-1.83-3.44,0-6.23,2.8-6.23,6.23s2.8,6.23,6.23,6.23c2.81,0,5.19-1.87,5.96-4.42h47.93l11.49-12.13c.77.34,1.62.54,2.53.54,3.43,0,6.23-2.79,6.23-6.23,0-1.66-.65-3.23-1.82-4.41-1.18-1.17-2.74-1.82-4.41-1.82-3.44,0-6.23,2.8-6.23,6.23,0,1.23.36,2.36.97,3.33l-10.32,10.89h-46.38Z"/>
    <path class="cls-3" d="m630.47,185.71c1.17-1.17,1.82-2.74,1.82-4.41s-.65-3.23-1.82-4.41c-1.17-1.18-2.74-1.82-4.4-1.82s-3.23.65-4.41,1.82c-1.18,1.18-1.83,2.74-1.83,4.41,0,2.81,1.87,5.19,4.43,5.96v36.31h46.43c.78,2.56,3.15,4.43,5.96,4.43,3.44,0,6.23-2.8,6.23-6.23,0-1.67-.65-3.23-1.83-4.41-1.18-1.18-2.74-1.82-4.41-1.82s-3.22.64-4.4,1.82c-.74.74-1.27,1.63-1.56,2.6h-42.82v-32.7c.97-.29,1.86-.82,2.6-1.56"/>
    <path class="cls-3" d="m730.41,198.69c-.34,0-.67.04-1,.09l-17.68-36.08,9.61-9.61c.87.46,1.86.72,2.9.72,3.44,0,6.23-2.8,6.23-6.23s-2.79-6.23-6.23-6.23-6.23,2.79-6.23,6.23c0,1.08.27,2.09.76,2.97l-9.98,9.98h-34.99c-.78-2.56-3.16-4.43-5.96-4.43-3.43,0-6.23,2.8-6.23,6.23s2.79,6.23,6.23,6.23c2.81,0,5.19-1.87,5.96-4.42h34.62l17.75,36.23c-1.22,1.14-1.99,2.76-1.99,4.55,0,3.43,2.8,6.23,6.23,6.23,1.66,0,3.23-.65,4.41-1.82,1.18-1.17,1.82-2.74,1.82-4.41s-.65-3.23-1.82-4.41c-1.18-1.18-2.74-1.82-4.41-1.82"/>
    <path class="cls-3" d="m795.45,198.38c0-1.66-.65-3.23-1.82-4.41-1.18-1.18-2.74-1.82-4.41-1.82s-3.23.65-4.4,1.82c-1.18,1.18-1.83,2.74-1.83,4.41h0c0,2.45,1.42,4.56,3.48,5.58v42.21c-2.56.78-4.43,3.15-4.43,5.96h0c0,3.44,2.8,6.23,6.23,6.23s6.23-2.8,6.23-6.23c0-1.67-.65-3.23-1.82-4.41-.74-.74-1.63-1.27-2.6-1.56v-41.62c3.03-.42,5.38-3.02,5.38-6.17"/>
    <path class="cls-3" d="m806.64,255.29v-68.6l-21.03-21.03c.22-.65.36-1.34.36-2.06,0-3.44-2.8-6.23-6.23-6.23s-6.23,2.8-6.23,6.23h0c0,3.44,2.79,6.23,6.23,6.23,1.39,0,2.67-.46,3.71-1.24l19.59,19.59v67.49c-2.23.95-3.79,3.16-3.79,5.73,0,3.43,2.8,6.23,6.23,6.23s6.23-2.79,6.23-6.23c0-3.03-2.18-5.56-5.06-6.12"/>
    <path class="cls-3" d="m604.57,230.54c3.43,0,6.23-2.8,6.23-6.23,0-2.81-1.87-5.18-4.43-5.96v-77.19l30.76-30.76,22.09-6.13c1.13,1.13,2.69,1.83,4.41,1.83,3.43,0,6.23-2.79,6.23-6.23s-2.79-6.23-6.23-6.23-6.23,2.8-6.23,6.23c0,.39.04.77.11,1.13l-22.25,6.18-32.48,32.49v78.68c-2.56.78-4.43,3.16-4.43,5.96,0,3.43,2.8,6.23,6.23,6.23"/>
    <path class="cls-3" d="m712.96,127.34c0,1.19.34,2.29.92,3.24l-21.1,21.1h-36.87c-.63-2.77-3.11-4.85-6.07-4.85-3.43,0-6.23,2.8-6.23,6.23,0,1.66.65,3.23,1.83,4.41s2.74,1.82,4.41,1.82c2.65,0,4.91-1.67,5.81-4h38.63l22.29-22.3c.8.37,1.69.58,2.62.58,1.66,0,3.23-.65,4.4-1.82,1.18-1.18,1.83-2.74,1.83-4.41,0-2.81-1.87-5.19-4.43-5.96v-29.39c2.56-.78,4.43-3.15,4.43-5.96,0-3.43-2.8-6.23-6.23-6.23s-6.23,2.8-6.23,6.23c0,2.81,1.87,5.19,4.43,5.96v29.39c-2.56.78-4.43,3.16-4.43,5.96"/>
    <path class="cls-3" d="m748.52,157.89c1.17-1.17,1.82-2.74,1.82-4.41,0-3.43-2.79-6.23-6.23-6.23s-6.23,2.8-6.23,6.23c0,1.67.64,3.23,1.82,4.41.74.74,1.63,1.27,2.6,1.56v101.06c-2.56.78-4.42,3.15-4.42,5.96,0,1.66.64,3.23,1.82,4.41,1.18,1.17,2.74,1.82,4.4,1.82,1.66,0,3.23-.64,4.41-1.82,1.17-1.18,1.82-2.74,1.82-4.41,0-2.81-1.87-5.18-4.42-5.96v-101.06c.97-.29,1.86-.82,2.6-1.56"/>
    <path class="cls-3" d="m769.52,253.76v-107.01l-19.71-16.89c.35-.78.53-1.63.53-2.51,0-1.67-.65-3.23-1.83-4.41-1.18-1.18-2.74-1.82-4.4-1.82s-3.23.64-4.41,1.82c-1.18,1.18-1.82,2.74-1.82,4.41,0,3.43,2.8,6.23,6.23,6.23,1.21,0,2.36-.34,3.35-.98l18.45,15.82v105.35c-2.56.78-4.43,3.15-4.43,5.96h1.17-1.17c0,3.44,2.8,6.23,6.23,6.23,3.43,0,6.23-2.8,6.23-6.23,0-2.81-1.87-5.19-4.43-5.96"/>
    <path class="cls-3" d="m719.67,260.51v-48.71s-.32-.34-.32-.34l-28.42-30.26h-40.35l-23.6-23.61.12-.11c1.18-1.18,1.83-2.74,1.83-4.41,0-1.82-.79-3.46-2.04-4.59l23.19-23.2h37.44s12.61-12.61,12.61-12.61v-21.58c1.58-1.13,2.61-2.97,2.61-5.06,0-3.44-2.8-6.23-6.23-6.23-3.44,0-6.23,2.8-6.23,6.23s2.8,6.23,6.23,6.23h.02s0,18.91,0,18.91l-10.5,10.5h-37.44l-25.21,25.2c-.23-.02-.46-.04-.69-.04-3.44,0-6.23,2.8-6.23,6.23,0,1.66.65,3.23,1.82,4.41,1.18,1.18,2.74,1.82,4.41,1.82.28,0,.55-.02.83-.06l25.56,25.56h40.28l26.7,28.42v47.29c-1.97.6-3.53,2.14-4.14,4.1l-101.76-.99-21.85-21.84c1.17-1.18,1.82-2.74,1.82-4.4s-.65-3.23-1.82-4.41c-1.18-1.17-2.74-1.83-4.41-1.82-3.43,0-6.23,2.79-6.23,6.23s2.8,6.23,6.23,6.23c.36,0,.71-.04,1.05-.1l23.7,23.7,103.23,1c.76,2.59,3.15,4.48,5.98,4.48,3.43,0,6.23-2.8,6.23-6.23,0-2.81-1.87-5.18-4.43-5.96"/>
    <path class="cls-3" d="m825.17,176.25c0-3.44-2.8-6.23-6.23-6.23-1.11,0-2.16.3-3.06.81l-46.36-44.26v-34.43c2.88-.55,5.06-3.08,5.06-6.12,0-3.44-2.8-6.23-6.23-6.23s-6.23,2.8-6.23,6.23c0,2.57,1.57,4.78,3.79,5.73v36.36l47.47,45.32c-.43.85-.68,1.8-.68,2.81,0,2.81,1.87,5.19,4.43,5.96v71.55c-2.56.78-4.43,3.15-4.43,5.96,0,3.43,2.79,6.23,6.23,6.23,3.43,0,6.23-2.8,6.23-6.23,0-2.81-1.87-5.19-4.43-5.96v-71.55c2.56-.78,4.43-3.15,4.43-5.96"/>
    <path class="cls-3" d="m872.29,223.36c-.78,0-1.53.15-2.22.42l-25.19-25.2c.47-.88.74-1.88.74-2.94,0-3.43-2.8-6.23-6.23-6.23-3.43,0-6.23,2.8-6.23,6.23,0,1.66.65,3.23,1.82,4.4.74.74,1.63,1.27,2.6,1.56v49.62c-2.56.78-4.43,3.16-4.43,5.96,0,3.43,2.8,6.23,6.23,6.23s6.23-2.8,6.23-6.23c0-2.81-1.87-5.19-4.42-5.96v-49.63c.39-.12.77-.28,1.13-.47l24.88,24.87c-.72,1.02-1.15,2.26-1.15,3.59,0,3.43,2.8,6.23,6.23,6.23,3.43,0,6.23-2.8,6.23-6.23s-2.8-6.23-6.23-6.23"/>
    <path class="cls-3" d="m418.89,109.01l29.72,29.72v54.34l18.68,20.49c-.6.97-.93,2.09-.93,3.26,0,1.66.65,3.23,1.83,4.4,1.18,1.18,2.74,1.83,4.4,1.83h0c3.43,0,6.23-2.8,6.23-6.23s-2.79-6.23-6.23-6.23c-.92,0-1.8.2-2.6.57l-17.77-19.49v-54.43l-31.84-31.84h-68.71s-22.37-22.36-22.37-22.36c.48-.9.73-1.9.73-2.95,0-3.43-2.79-6.23-6.23-6.23s-6.23,2.8-6.23,6.23,2.79,6.23,6.23,6.23h0c1.04,0,2.05-.26,2.94-.74l23.42,23.42h68.72Z"/>
    <path class="cls-3" d="m380.43,175.41c3.43,0,6.23-2.8,6.23-6.23,0-1.66-.64-3.23-1.82-4.4-.74-.74-1.63-1.27-2.6-1.56v-28.2c.97-.29,1.86-.82,2.6-1.56,1.18-1.18,1.82-2.74,1.82-4.4,0-3.44-2.79-6.23-6.23-6.23s-6.23,2.79-6.23,6.23c0,2.81,1.87,5.18,4.42,5.96v28.21c-.97.3-1.86.82-2.6,1.56-1.18,1.17-1.83,2.74-1.82,4.4,0,1.66.65,3.23,1.82,4.41,1.18,1.18,2.74,1.82,4.4,1.82h0Z"/>
    <path class="cls-3" d="m426.88,183.52c0,3.43,2.8,6.23,6.23,6.23s6.23-2.8,6.23-6.23c0-2.81-1.87-5.19-4.43-5.96v-32.43c2.56-.78,4.43-3.15,4.43-5.96,0-3.43-2.8-6.23-6.23-6.23-3.43,0-6.23,2.8-6.23,6.23,0,2.81,1.87,5.19,4.43,5.96v32.43c-2.56.78-4.43,3.16-4.43,5.96"/>
    <path class="cls-3" d="m412.99,253.5c0,1.66.65,3.23,1.82,4.41,1.17,1.18,2.74,1.82,4.4,1.82h0c1.66,0,3.23-.65,4.41-1.82,1.18-1.18,1.82-2.74,1.82-4.41,0-1.66-.64-3.23-1.82-4.4-.74-.74-1.63-1.27-2.6-1.56v-47.9l-18.51-18.51v-38.97c2.56-.77,4.43-3.15,4.43-5.96,0-3.43-2.8-6.23-6.23-6.23s-6.23,2.8-6.23,6.23c0,2.81,1.87,5.19,4.43,5.96v40.46l18.51,18.51v46.41c-.97.29-1.86.82-2.6,1.56-1.18,1.18-1.82,2.74-1.82,4.4"/>
    <path class="cls-3" d="m484.87,107.27v35.36l16.44,13.49v94.42l-32.46,26.63-.43.35v22.72c-2.56.77-4.43,3.15-4.43,5.96,0,3.43,2.8,6.23,6.23,6.23s6.23-2.8,6.23-6.23c0-2.81-1.87-5.19-4.43-5.96v-21.01s32.46-26.63,32.46-26.63l.43-.35v-97.83l-16.44-13.49v-33.66c2.56-.78,4.42-3.16,4.42-5.96,0-3.43-2.79-6.23-6.23-6.23-3.43,0-6.23,2.8-6.23,6.23,0,1.66.65,3.23,1.82,4.41.74.74,1.63,1.27,2.6,1.56"/>
    <path class="cls-3" d="m497.96,301.14c0-2.81-1.87-5.18-4.43-5.96v-6.36l26.14-26.14v-55.92c.97-.29,1.87-.82,2.6-1.56,1.17-1.18,1.82-2.74,1.82-4.4s-.65-3.23-1.82-4.41c-1.18-1.18-2.74-1.82-4.41-1.82-3.43,0-6.23,2.79-6.23,6.23,0,2.81,1.87,5.18,4.43,5.96v54.43l-26.14,26.14v7.85c-.97.3-1.87.82-2.6,1.56-1.18,1.18-1.82,2.74-1.82,4.4s.65,3.23,1.82,4.41c1.17,1.18,2.74,1.82,4.41,1.82,3.43,0,6.23-2.79,6.23-6.23"/>
    <path class="cls-3" d="m533.56,327.22v-8.49h-22.53s0-21.48,0-21.48h13.95c.29.97.82,1.86,1.56,2.6,1.18,1.18,2.74,1.82,4.41,1.82h0c3.43,0,6.23-2.8,6.23-6.23s-2.79-6.23-6.23-6.23c-1.67,0-3.23.65-4.41,1.83-.74.74-1.27,1.63-1.56,2.6h-11.4l33.08-33.07v-55.91c.97-.29,1.86-.82,2.6-1.56,1.18-1.18,1.82-2.74,1.82-4.41s-.65-3.23-1.82-4.4c-1.18-1.18-2.74-1.82-4.41-1.82s-3.23.64-4.4,1.82c-1.18,1.17-1.83,2.74-1.83,4.4,0,2.81,1.87,5.19,4.43,5.96v54.43l-34.57,34.57h-.42v.42l-.63.63v27.64h22.53v4.88c-.97.29-1.87.82-2.6,1.56-1.18,1.17-1.82,2.74-1.82,4.4s.65,3.23,1.82,4.41c1.17,1.18,2.74,1.83,4.41,1.83,3.43,0,6.23-2.8,6.23-6.23,0-2.81-1.87-5.18-4.43-5.96"/>
    <path class="cls-3" d="m561.19,207.22c-3.43,0-6.23,2.8-6.23,6.23,0,2.81,1.87,5.19,4.43,5.96v49.47l-13.39,13.38v56.93l9.07,9.07v9.73c-2.56.78-4.43,3.16-4.43,5.96,0,3.43,2.79,6.23,6.23,6.23v-1.17,1.17c1.67,0,3.23-.65,4.41-1.82,1.18-1.18,1.82-2.74,1.82-4.41s-.65-3.23-1.83-4.41c-.74-.74-1.63-1.27-2.6-1.56v-11.22l-9.07-9.06v-53.95s13.39-13.39,13.39-13.39v-50.96c.97-.29,1.86-.82,2.6-1.56,1.18-1.18,1.82-2.74,1.82-4.41s-.65-3.23-1.82-4.41c-1.18-1.18-2.74-1.82-4.41-1.82"/>
    <path class="cls-3" d="m472.02,262.08c-1.17-1.12-2.69-1.74-4.32-1.74-3.43,0-6.23,2.79-6.23,6.23,0,3.43,2.8,6.23,6.23,6.23h0c1.66,0,3.23-.65,4.4-1.82,1.18-1.18,1.82-2.74,1.82-4.4,0-.44-.05-.88-.14-1.3l19.74-15.26v-81.62c2.56-.78,4.43-3.15,4.43-5.96,0-3.43-2.8-6.23-6.23-6.23s-6.23,2.8-6.23,6.23c0,2.81,1.87,5.19,4.43,5.96v79.84l-17.91,13.85Z"/>
    <path class="cls-3" d="m387.83,402.28c1.17-1.18,1.82-2.74,1.82-4.4,0-.44-.05-.88-.14-1.3l19.74-15.26v-81.61c2.56-.78,4.43-3.16,4.43-5.96,0-3.43-2.8-6.23-6.23-6.23s-6.23,2.8-6.23,6.23c0,2.81,1.87,5.19,4.43,5.96v79.84l-17.91,13.84c-1.17-1.12-2.69-1.74-4.32-1.74-3.43,0-6.22,2.79-6.23,6.23,0,3.43,2.8,6.23,6.23,6.23,1.66,0,3.23-.65,4.41-1.82"/>
    <path class="cls-3" d="m525.82,363.92c-1,0-1.94.24-2.78.66l-24.83-24.83c1.02-1.11,1.65-2.59,1.65-4.21,0-3.44-2.8-6.23-6.23-6.23s-6.23,2.79-6.23,6.23,2.8,6.23,6.23,6.23c.46,0,.92-.06,1.35-.15l25.44,25.44c-.52.91-.83,1.96-.83,3.09,0,3.44,2.79,6.23,6.23,6.23s6.23-2.79,6.23-6.23-2.79-6.23-6.23-6.23"/>
    <path class="cls-3" d="m445.4,209.59c0-3.43-2.8-6.23-6.23-6.23s-6.23,2.8-6.23,6.23c0,2.82,1.89,5.2,4.46,5.97v86.89c-.91.28-1.75.78-2.44,1.48-1.13,1.12-1.75,2.62-1.75,4.21,0,3.28,2.67,5.96,5.96,5.96s5.96-2.67,5.96-5.96c0-2.67-1.77-4.93-4.19-5.69v-86.89c2.58-.77,4.46-3.15,4.46-5.97"/>
    <path class="cls-3" d="m575.61,368.03v-86.89c2.58-.76,4.46-3.15,4.46-5.97,0-3.44-2.79-6.23-6.23-6.23s-6.23,2.79-6.23,6.23c0,2.82,1.88,5.2,4.46,5.97v86.89c-.91.28-1.74.78-2.44,1.48-1.13,1.13-1.75,2.62-1.75,4.21s.62,3.09,1.75,4.21c1.12,1.13,2.62,1.75,4.21,1.75,3.29,0,5.96-2.67,5.96-5.96,0-2.67-1.77-4.93-4.19-5.69"/>
    <path class="cls-3" d="m682.54,50.13c-3.34,0-6.16,2.27-7,5.34h-155.58l-31.81,31.81h-29.64l-31.07-31.07h-129.42l-36.87-36.87h-106.83c-.85-3.08-3.66-5.34-7.01-5.34-1.94,0-3.77.76-5.14,2.13-1.38,1.38-2.13,3.2-2.13,5.14,0,4.01,3.27,7.28,7.28,7.28,3.34,0,6.16-2.27,7.01-5.34h105.22l36.87,36.87h129.42s31.07,31.07,31.07,31.07h32.85l31.81-31.81h153.98c.85,3.07,3.66,5.34,7,5.34,1.95,0,3.77-.76,5.15-2.13,1.37-1.38,2.13-3.2,2.13-5.14,0-1.94-.76-3.77-2.13-5.14-1.38-1.38-3.2-2.13-5.15-2.13"/>
    <path class="cls-3" d="m97.48,348.04c3.43,0,6.23-2.79,6.23-6.23,0-3.44-2.8-6.23-6.23-6.23s-6.23,2.79-6.23,6.23c0,.71.12,1.39.34,2.02l-21.63,15.61v30.29l17.71,19.39v15.26c-2.56.78-4.43,3.15-4.43,5.96,0,3.43,2.8,6.23,6.23,6.23,3.43,0,6.23-2.8,6.23-6.23,0-1.67-.65-3.23-1.82-4.41-.74-.74-1.63-1.27-2.6-1.56v-16.65l-17.71-19.39v-27.05l20.14-14.53c1.05.8,2.36,1.29,3.78,1.29"/>
    <path class="cls-3" d="m165.98,294.76v30.29l17.71,19.4v15.26c-2.56.77-4.42,3.15-4.43,5.96,0,3.43,2.8,6.23,6.23,6.23,1.66,0,3.23-.65,4.41-1.83,1.18-1.17,1.82-2.74,1.82-4.4s-.65-3.23-1.82-4.41c-.74-.74-1.63-1.27-2.6-1.56v-16.66s-17.71-19.4-17.71-19.4v-27.05l20.14-14.53c1.05.8,2.35,1.29,3.77,1.29,3.43,0,6.23-2.79,6.23-6.23,0-3.44-2.8-6.23-6.23-6.23s-6.23,2.8-6.23,6.23c0,.71.12,1.38.35,2.02l-21.63,15.61Z"/>
    <path class="cls-3" d="m122.25,395.08h0c2.81,0,5.18-1.87,5.96-4.43h41.37s0-41.82,0-41.82l-26.98-23.61v-16.4c.97-.29,1.86-.82,2.6-1.56,1.18-1.18,1.82-2.74,1.82-4.41s-.65-3.23-1.82-4.41c-1.18-1.18-2.74-1.82-4.41-1.82-3.43,0-6.23,2.79-6.23,6.23,0,2.81,1.87,5.19,4.43,5.96v18.05l26.98,23.61v36.59h-37.77c-.78-2.56-3.15-4.43-5.96-4.43-1.66,0-3.23.65-4.41,1.82-1.18,1.18-1.82,2.74-1.82,4.41s.64,3.23,1.82,4.41c1.18,1.18,2.74,1.82,4.4,1.82"/>
    <path class="cls-3" d="m104.42,207.91l-10.72,16.08c-.57-.18-1.18-.27-1.81-.27-3.44,0-6.23,2.8-6.23,6.23s2.8,6.23,6.23,6.23c1.67,0,3.23-.65,4.41-1.83,1.18-1.17,1.82-2.74,1.82-4.4,0-1.5-.53-2.88-1.42-3.96l9.65-14.47h55.62v12.47c-.97.29-1.86.82-2.6,1.56-1.18,1.18-1.82,2.74-1.82,4.41,0,3.43,2.8,6.23,6.23,6.23s6.23-2.8,6.23-6.23c0-2.81-1.87-5.18-4.43-5.96v-16.08h-61.16Z"/>
    <path class="cls-3" d="m60.79,225.62v4.27c-2.56.78-4.42,3.15-4.42,5.96,0,1.66.65,3.23,1.82,4.41,1.18,1.18,2.74,1.82,4.41,1.82,3.44,0,6.23-2.79,6.23-6.23,0-2.81-1.87-5.19-4.42-5.96v-2.78l34.14-34.14h11.84c.78,2.56,3.15,4.42,5.96,4.42,3.43,0,6.23-2.79,6.23-6.23s-2.8-6.23-6.23-6.23c-1.67,0-3.23.65-4.41,1.82-.74.74-1.27,1.63-1.56,2.6h-13.33l-36.26,36.26Z"/>
    <path class="cls-3" d="m18.42,241.82v27.46h23.61v22.17c-2.56.77-4.43,3.15-4.43,5.96,0,3.43,2.8,6.23,6.23,6.23,1.67,0,3.23-.65,4.41-1.83,1.18-1.18,1.82-2.74,1.82-4.4s-.64-3.23-1.82-4.41c-.74-.74-1.63-1.27-2.6-1.56v-22.16h18.74v28.91c-2.56.78-4.43,3.15-4.43,5.96,0,1.66.65,3.23,1.82,4.4,1.18,1.18,2.74,1.83,4.41,1.83,3.43,0,6.23-2.8,6.23-6.23,0-2.81-1.87-5.19-4.43-5.96v-28.91h47.85l23.45-23.45c.73.3,1.53.47,2.36.47h0c3.43,0,6.23-2.8,6.23-6.23s-2.79-6.23-6.23-6.23-6.23,2.8-6.23,6.23c0,1.28.39,2.48,1.06,3.47l-22.13,22.13H22.03v-23.85c.97-.29,1.86-.82,2.6-1.56,1.17-1.17,1.82-2.74,1.82-4.4,0-3.43-2.79-6.23-6.23-6.23-1.66,0-3.23.65-4.41,1.82-1.18,1.18-1.83,2.74-1.82,4.41,0,1.66.64,3.23,1.82,4.4.74.74,1.63,1.27,2.6,1.56"/>
    <path class="cls-3" d="m159.35,263.69c3.43,0,6.23-2.8,6.23-6.23,0-3.43-2.8-6.23-6.23-6.23s-6.23,2.8-6.23,6.23c0,.89.19,1.75.54,2.53l-35.46,30.66h-27.93c-.29-.97-.82-1.87-1.56-2.6-1.18-1.18-2.74-1.82-4.4-1.82-3.44,0-6.23,2.8-6.23,6.23s2.8,6.23,6.23,6.23h0c2.81,0,5.18-1.87,5.96-4.43h29.28s36.47-31.53,36.47-31.53c.99.63,2.13.97,3.33.97"/>
    <path class="cls-3" d="m43.83,242.08h0c3.44,0,6.23-2.8,6.23-6.23,0-2.81-1.87-5.19-4.43-5.96v-36.92h22.59c.78,2.56,3.16,4.43,5.96,4.43,3.43,0,6.23-2.8,6.23-6.23,0-3.43-2.8-6.23-6.23-6.23-1.66,0-3.23.65-4.41,1.82-.74.74-1.27,1.63-1.56,2.6h-26.19s0,40.53,0,40.53c-2.56.78-4.42,3.16-4.43,5.96,0,3.43,2.8,6.23,6.23,6.23"/>
    <path class="cls-3" d="m34.44,386.99v-32.35l-8.75-8.76c.48-.89.73-1.9.73-2.95,0-1.66-.64-3.23-1.82-4.4-1.18-1.18-2.74-1.83-4.4-1.83s-3.23.65-4.41,1.83c-1.18,1.18-1.82,2.74-1.82,4.4s.65,3.23,1.82,4.41c1.17,1.18,2.74,1.82,4.41,1.82,1.04,0,2.05-.26,2.94-.74l7.7,7.7v29.36l-14.93,14.93c-.89-.48-1.9-.73-2.95-.73-1.66,0-3.23.65-4.41,1.82-1.17,1.18-1.82,2.74-1.82,4.41s.65,3.23,1.83,4.4c1.18,1.18,2.74,1.83,4.4,1.83s3.23-.65,4.41-1.83c1.98-1.98,2.34-4.99,1.08-7.34l15.99-15.99Z"/>
    <path class="cls-3" d="m360.06,263.82l3.02,3.02c-1.26,2.35-.9,5.36,1.09,7.34,1.18,1.18,2.74,1.82,4.4,1.82s3.23-.65,4.4-1.82h0c2.43-2.43,2.43-6.38,0-8.81-1.99-1.99-4.99-2.35-7.35-1.09l-1.97-1.97v-48.29l8.37-8.37c2.36,1.26,5.36.9,7.35-1.09,2.43-2.43,2.43-6.38,0-8.81-2.43-2.43-6.38-2.43-8.81,0-1.18,1.18-1.82,2.74-1.82,4.4,0,1.05.25,2.05.74,2.95l-9.43,9.43v51.28Z"/>
    <path class="cls-3" d="m382.85,219.26h0c-3.44,0-6.23,2.8-6.23,6.23,0,2.81,1.87,5.19,4.43,5.96v36.92h-22.59c-.78-2.56-3.15-4.43-5.96-4.43-3.43,0-6.23,2.8-6.23,6.23s2.79,6.23,6.23,6.23c1.67,0,3.23-.65,4.41-1.83.74-.74,1.27-1.63,1.56-2.6h26.19s0-40.53,0-40.53c2.56-.78,4.42-3.16,4.43-5.96,0-3.43-2.8-6.23-6.23-6.23"/>
    <path class="cls-3" d="m304.09,93.84c-1.18-1.17-2.74-1.82-4.41-1.82s-3.23.65-4.4,1.82c-1.18,1.18-1.83,2.74-1.83,4.4,0,1.04.26,2.05.74,2.94l-62.61,62.61-26.23-.6-13.4,13.4-57.93-2.71c-.12-1.42-.72-2.8-1.8-3.89-1.17-1.18-2.74-1.82-4.41-1.82s-3.23.65-4.4,1.82c-2.43,2.43-2.43,6.38,0,8.81,1.18,1.18,2.74,1.82,4.4,1.82s3.23-.65,4.41-1.82c.41-.41.75-.87,1.02-1.35l60.13,2.81,13.43-13.43,26.24.59,63.7-63.7c.89.48,1.9.74,2.94.74,1.66,0,3.23-.65,4.41-1.82,2.43-2.43,2.43-6.38,0-8.81"/>
    <path class="cls-3" d="m201.01,84.85c.29.95.8,1.85,1.56,2.6,1.17,1.17,2.74,1.82,4.4,1.82s3.23-.65,4.41-1.82c1.18-1.18,1.83-2.74,1.83-4.41s-.65-3.23-1.83-4.41c-1.18-1.18-2.74-1.82-4.41-1.82s-3.23.65-4.4,1.82c-.75.75-1.27,1.65-1.56,2.6h-35.77l-37.23,37.23c-.89-.48-1.9-.74-2.95-.74-1.66,0-3.23.65-4.4,1.83-2.43,2.43-2.43,6.38,0,8.81,1.18,1.18,2.74,1.82,4.41,1.82s3.23-.65,4.4-1.82c1.99-1.98,2.35-4.99,1.09-7.35l36.18-36.17h34.28Z"/>
    <path class="cls-3" d="m121.26,149.23c1.18,1.17,2.74,1.82,4.41,1.82s3.23-.65,4.4-1.82c1.18-1.17,1.82-2.74,1.83-4.41,0-1.66-.65-3.23-1.83-4.4-1.18-1.18-2.74-1.83-4.4-1.83s-3.23.65-4.41,1.83c-.74.74-1.27,1.63-1.56,2.6h-30.05c-.29-.91-.79-1.76-1.51-2.48-1.17-1.18-2.74-1.82-4.4-1.82s-3.23.65-4.41,1.82c-2.43,2.43-2.43,6.38,0,8.81,1.17,1.18,2.74,1.82,4.41,1.82s3.23-.65,4.41-1.82c.78-.78,1.31-1.72,1.58-2.73h29.97c.29.98.82,1.87,1.56,2.6"/>
    <path class="cls-3" d="m167.06,116.81c1.66,0,3.23-.65,4.4-1.82,2.43-2.43,2.43-6.38,0-8.81-1.18-1.17-2.74-1.82-4.41-1.82s-3.23.65-4.41,1.82c-1.18,1.18-1.82,2.74-1.82,4.41,0,1.04.26,2.05.74,2.94l-14.33,14.33c-.89-.48-1.9-.74-2.94-.74-1.66,0-3.23.65-4.41,1.82-2.43,2.43-2.43,6.38,0,8.81,1.17,1.18,2.74,1.82,4.41,1.82s3.23-.65,4.41-1.82c1.98-1.99,2.34-4.99,1.08-7.35l14.33-14.33c.9.48,1.9.74,2.95.74"/>
    <path class="cls-3" d="m94.96,127.51c1.66,0,3.23-.65,4.41-1.83,1.18-1.18,1.82-2.74,1.82-4.4s-.65-3.23-1.82-4.41c-.96-.96-2.18-1.56-3.5-1.75l-.93-22.41,43.63-43.63h62.31l6.89-6.89c.89.48,1.9.74,2.94.74,1.66,0,3.23-.65,4.41-1.82,2.43-2.43,2.43-6.38,0-8.81-1.18-1.18-2.74-1.82-4.41-1.82s-3.23.65-4.41,1.82c-1.98,1.99-2.34,4.99-1.08,7.34l-5.84,5.84h-62.31l-45.81,45.8,1.01,24.39c-.63.3-1.22.71-1.72,1.21-1.18,1.17-1.82,2.74-1.82,4.41s.65,3.23,1.82,4.4c1.18,1.18,2.74,1.83,4.41,1.83"/>
    <path class="cls-3" d="m221.73,137.29h-25.46l-12.01,12.01h-37.53c-.24-1.19-.82-2.29-1.7-3.17-1.18-1.17-2.74-1.82-4.41-1.82s-3.23.65-4.4,1.82c-1.18,1.18-1.83,2.74-1.83,4.41s.65,3.23,1.82,4.4c1.18,1.18,2.74,1.83,4.41,1.83s3.23-.65,4.41-1.83c.59-.59,1.05-1.28,1.36-2.03h39.37l12.01-12.01h25.46l45.54-45.54c1.02.69,2.22,1.06,3.48,1.06,1.66,0,3.23-.65,4.41-1.82,1.17-1.18,1.82-2.74,1.82-4.41s-.65-3.23-1.82-4.41c-1.18-1.17-2.74-1.82-4.41-1.82s-3.23.65-4.41,1.82c-1.18,1.18-1.82,2.74-1.82,4.41,0,.82.16,1.62.46,2.35l-44.75,44.75Z"/>
    <path class="cls-3" d="m207.42,115.82h-16.84c-.29-.97-.82-1.86-1.56-2.6-1.18-1.18-2.74-1.83-4.41-1.83s-3.23.65-4.4,1.83c-1.18,1.17-1.83,2.74-1.83,4.4s.65,3.23,1.83,4.41c1.17,1.18,2.74,1.82,4.4,1.82s3.23-.65,4.41-1.82c.74-.74,1.27-1.63,1.56-2.6h18.33l41.93-41.93c.98.62,2.11.95,3.29.95,1.66,0,3.23-.65,4.41-1.83,2.43-2.43,2.43-6.38,0-8.81-1.18-1.18-2.74-1.83-4.41-1.83s-3.23.65-4.4,1.83c-1.18,1.18-1.83,2.74-1.83,4.41,0,.9.2,1.76.56,2.56l-41.04,41.04Z"/>
    <path class="cls-3" d="m153.76,58.96l-38.65,38.65c-1.01-.67-2.19-1.03-3.43-1.03-1.66,0-3.23.65-4.41,1.83-2.43,2.43-2.43,6.38,0,8.81,1.18,1.17,2.74,1.82,4.41,1.82s3.23-.65,4.41-1.82c1.84-1.84,2.28-4.55,1.34-6.81l37.84-37.84h60.89l9.62,9.62c-1.26,2.36-.9,5.36,1.09,7.35,1.18,1.18,2.74,1.82,4.41,1.82s3.23-.65,4.4-1.82c2.43-2.43,2.43-6.38,0-8.81-1.18-1.17-2.74-1.82-4.4-1.82-1.04,0-2.05.26-2.95.74l-10.67-10.67h-63.87Z"/>
    <path class="cls-3" d="m869.17,333.23c-1.12-1.12-2.61-1.74-4.2-1.74s-3.07.62-4.2,1.74c-1.12,1.12-1.74,2.61-1.74,4.2,0,.99.24,1.95.7,2.8l-59.64,59.64-24.99-.57-12.76,12.76-55.17-2.58c-.11-1.35-.68-2.67-1.71-3.7-1.12-1.12-2.61-1.73-4.2-1.73s-3.08.62-4.2,1.73c-2.32,2.31-2.32,6.08,0,8.4,1.12,1.12,2.61,1.73,4.2,1.73s3.07-.62,4.2-1.73c.39-.39.71-.83.97-1.29l57.27,2.67,12.8-12.79,24.99.57,60.67-60.68c.85.46,1.81.71,2.8.71,1.58,0,3.07-.62,4.2-1.74,2.31-2.32,2.31-6.08,0-8.39"/>
    <path class="cls-3" d="m770.99,324.66c.27.91.77,1.76,1.48,2.48,1.12,1.12,2.61,1.74,4.2,1.74s3.07-.62,4.2-1.74c1.12-1.12,1.74-2.61,1.74-4.2s-.62-3.08-1.74-4.2c-1.12-1.12-2.61-1.74-4.2-1.74s-3.07.62-4.2,1.74c-.72.72-1.21,1.57-1.48,2.48h-34.08l-35.46,35.46c-.85-.46-1.81-.7-2.8-.7-1.59,0-3.08.62-4.2,1.74-2.31,2.31-2.31,6.08,0,8.39,1.12,1.12,2.61,1.74,4.2,1.74s3.07-.62,4.2-1.74c1.89-1.89,2.23-4.75,1.03-7l34.46-34.46h32.66Z"/>
    <path class="cls-3" d="m695.02,385.99c1.12,1.12,2.61,1.74,4.2,1.74s3.07-.62,4.2-1.74c1.12-1.12,1.74-2.61,1.74-4.19s-.62-3.08-1.74-4.2c-1.12-1.12-2.61-1.74-4.2-1.74s-3.07.62-4.2,1.74c-.7.71-1.21,1.55-1.48,2.48h-28.62c-.28-.87-.76-1.68-1.44-2.36-1.12-1.12-2.61-1.74-4.2-1.74s-3.07.62-4.2,1.74c-2.31,2.31-2.31,6.08,0,8.39,1.12,1.12,2.61,1.74,4.2,1.74s3.07-.62,4.2-1.74c.74-.75,1.25-1.65,1.51-2.6h28.55c.28.93.78,1.78,1.48,2.48"/>
    <path class="cls-3" d="m738.65,355.11c1.59,0,3.07-.62,4.2-1.74,2.31-2.31,2.31-6.08,0-8.39-1.12-1.12-2.61-1.74-4.2-1.74s-3.07.62-4.2,1.74c-1.12,1.12-1.74,2.61-1.74,4.2,0,.99.24,1.95.7,2.8l-13.65,13.65c-.85-.46-1.81-.7-2.81-.7-1.58,0-3.07.62-4.2,1.74-2.31,2.32-2.31,6.08,0,8.39,1.12,1.12,2.61,1.74,4.2,1.74s3.08-.62,4.2-1.74c1.89-1.89,2.23-4.75,1.03-7l13.65-13.65c.85.46,1.81.7,2.8.7"/>
    <path class="cls-3" d="m669.96,365.3c1.59,0,3.08-.62,4.2-1.74,1.12-1.12,1.74-2.61,1.74-4.2s-.62-3.07-1.74-4.2c-.91-.92-2.08-1.49-3.33-1.67l-.89-21.35,41.56-41.56h59.35l6.57-6.57c.85.46,1.81.7,2.8.7,1.59,0,3.07-.62,4.2-1.74,2.31-2.31,2.31-6.08,0-8.39-1.12-1.12-2.61-1.74-4.2-1.74s-3.08.62-4.2,1.74c-1.89,1.89-2.23,4.75-1.03,7l-5.56,5.56h-59.35l-43.63,43.63.96,23.23c-.6.29-1.16.67-1.64,1.16-1.12,1.12-1.74,2.61-1.74,4.2s.62,3.07,1.74,4.2c1.12,1.12,2.61,1.74,4.2,1.74"/>
    <path class="cls-3" d="m790.72,374.61h-24.25l-11.44,11.44h-35.75c-.23-1.14-.79-2.18-1.62-3.02-1.12-1.12-2.61-1.74-4.2-1.74s-3.07.62-4.19,1.74c-1.12,1.12-1.74,2.61-1.74,4.2s.62,3.07,1.74,4.2c1.12,1.12,2.61,1.74,4.19,1.74s3.08-.62,4.2-1.74c.57-.57,1-1.22,1.3-1.94h37.5l11.44-11.44h24.25l43.38-43.38c.97.66,2.12,1.01,3.32,1.01,1.58,0,3.07-.62,4.2-1.74,1.12-1.12,1.74-2.61,1.74-4.19s-.62-3.08-1.74-4.2c-1.12-1.12-2.61-1.74-4.2-1.74s-3.08.62-4.2,1.74c-1.12,1.12-1.74,2.61-1.74,4.2,0,.78.15,1.54.44,2.24l-42.62,42.63Z"/>
    <path class="cls-3" d="m777.09,354.17h-16.04c-.28-.93-.78-1.78-1.49-2.48-1.12-1.12-2.61-1.74-4.2-1.74s-3.07.62-4.2,1.74c-1.12,1.12-1.74,2.61-1.74,4.2s.62,3.08,1.74,4.2c1.12,1.12,2.61,1.74,4.2,1.74s3.07-.62,4.2-1.74c.7-.7,1.21-1.55,1.49-2.48h17.46l39.94-39.94c.93.58,2.01.9,3.14.9,1.59,0,3.07-.62,4.2-1.74,2.31-2.32,2.31-6.08,0-8.39-1.12-1.12-2.61-1.74-4.2-1.74s-3.08.62-4.2,1.74c-1.12,1.12-1.74,2.61-1.74,4.2,0,.85.18,1.68.53,2.44l-39.09,39.09Z"/>
    <path class="cls-3" d="m725.97,300l-36.82,36.82c-.96-.64-2.09-.98-3.27-.98-1.58,0-3.08.62-4.2,1.74-2.32,2.31-2.32,6.08,0,8.39,1.12,1.12,2.61,1.74,4.2,1.74s3.07-.62,4.2-1.74c1.75-1.75,2.17-4.34,1.27-6.49l36.05-36.05h57.99l9.16,9.17c-1.2,2.24-.85,5.1,1.04,7,1.12,1.12,2.61,1.74,4.2,1.74s3.07-.62,4.2-1.74c2.31-2.32,2.31-6.08,0-8.4-1.12-1.12-2.61-1.73-4.2-1.73-1,0-1.95.24-2.8.7l-10.17-10.17h-60.84Z"/>
    <path class="cls-3" d="m1411.81,133.99v146.9l-30.07,14.07-31.79-31.79v-58.24s-27.61-27.61-27.61-27.61h-78.82l-12.62,11.75c.53,1.01.83,2.15.83,3.36,0,4.01-3.26,7.27-7.27,7.27s-7.27-3.27-7.27-7.28,3.26-7.27,7.28-7.27c1.4,0,2.7.4,3.81,1.09l13.74-12.79h81.93l29.87,29.87v58.25l28.74,28.74,25.38-11.87v-144.3c-3.2-.76-5.59-3.64-5.59-7.07,0-1.95.76-3.77,2.13-5.14,1.37-1.38,3.2-2.13,5.14-2.13v1.17-1.17c1.95,0,3.78.75,5.15,2.13,1.38,1.38,2.13,3.2,2.13,5.15,0,3.25-2.14,6-5.09,6.93"/>
    <path class="cls-3" d="m1391.31,119.07c-3.34,0-6.16-2.27-7.01-5.34h-155.58l-31.81-31.81h-29.64l-31.07,31.07h-129.42l-36.87,36.87h-106.83c-.85,3.08-3.66,5.34-7.01,5.34-1.94,0-3.77-.76-5.14-2.13-1.38-1.37-2.13-3.2-2.13-5.14,0-4.01,3.27-7.27,7.28-7.27,3.34,0,6.16,2.27,7.01,5.34h105.22l36.87-36.87h129.42l31.07-31.07h32.84l31.81,31.81h153.98c.85-3.07,3.67-5.34,7.01-5.34,1.94,0,3.77.76,5.15,2.13,1.37,1.37,2.13,3.2,2.13,5.14,0,1.94-.76,3.77-2.13,5.14-1.38,1.37-3.2,2.13-5.15,2.13"/>
    <path class="cls-3" d="m1146.94,214.23c-4.01,0-7.27-3.27-7.27-7.27s3.27-7.28,7.27-7.28h0c1.3,0,2.53.35,3.58.95l22.43-22.43h43.4l25.62-25.62h99.6c.85-3.07,3.67-5.34,7-5.34,1.95,0,3.77.76,5.14,2.13,1.38,1.37,2.13,3.2,2.13,5.14,0,1.95-.76,3.77-2.13,5.15-1.38,1.38-3.2,2.13-5.15,2.13-3.34,0-6.15-2.27-7-5.34h-98l-25.62,25.62h-43.4s-21.3,21.3-21.3,21.3c.6,1.06.95,2.28.95,3.59,0,4.01-3.27,7.27-7.28,7.27"/>
    <path class="cls-3" d="m1023.28,233.87c0,1.95.76,3.77,2.13,5.14,1.38,1.38,3.2,2.13,5.14,2.13s3.77-.76,5.15-2.13c.9-.9,1.53-2.01,1.86-3.21h12.08s.24.18.24.18l.15-.19h30.6c.85,3.07,3.67,5.34,7,5.34,1.94,0,3.77-.76,5.15-2.13,1.37-1.38,2.13-3.2,2.13-5.15,0-4.01-3.26-7.27-7.27-7.27h0c-3.34,0-6.15,2.27-7,5.34h-27.51l14.41-18.08c.72.23,1.48.37,2.27.37,1.95,0,3.78-.76,5.15-2.13,1.38-1.37,2.13-3.2,2.13-5.14s-.76-3.77-2.13-5.14c-1.37-1.37-3.2-2.13-5.14-2.13-4.01,0-7.27,3.26-7.27,7.27,0,1.82.67,3.47,1.77,4.75l-16.14,20.23h-10.6c-.33-1.2-.96-2.3-1.86-3.21-1.38-1.37-3.2-2.13-5.15-2.13-4.01,0-7.27,3.26-7.27,7.27"/>
    <path class="cls-3" d="m1163.84,134.82c3.34,0,6.16,2.27,7.01,5.34h7.45c.33-1.2.96-2.3,1.86-3.21,1.38-1.38,3.2-2.13,5.14-2.13h0c1.94,0,3.77.76,5.14,2.13,1.38,1.37,2.13,3.2,2.13,5.14,0,4.01-3.26,7.27-7.27,7.27-1.95,0-3.77-.76-5.15-2.13-.9-.9-1.54-2.01-1.86-3.21h-7.45c-.85,3.07-3.67,5.34-7.01,5.34-4.01,0-7.27-3.26-7.28-7.27,0-4.01,3.27-7.27,7.28-7.28"/>
    <path class="cls-3" d="m1136.15,279.98v1.17s0-1.17,0-1.17c3.34,0,6.15,2.27,7,5.34h72.21l19.95-19.95v-16.72s28.32-28.31,28.32-28.31c-.42-.92-.66-1.93-.66-3,0-4.01,3.27-7.27,7.28-7.28,4.01,0,7.27,3.27,7.27,7.28,0,1.94-.76,3.77-2.13,5.14-1.38,1.38-3.2,2.13-5.14,2.13-1.53,0-2.96-.48-4.13-1.29l-26.94,26.93v16.72l-22.21,22.21h-73.82c-.85,3.07-3.67,5.34-7.01,5.34-4.01,0-7.27-3.27-7.27-7.28,0-1.94.76-3.77,2.13-5.14,1.37-1.37,3.2-2.13,5.14-2.13"/>
    <path class="cls-3" d="m1013.62,214.77h0c1.2,0,2.34.3,3.34.82l28.67-28.67h60.18c.33-1.2.96-2.31,1.87-3.21,1.37-1.38,3.2-2.13,5.14-2.13v1.17s0-1.17,0-1.17c4.01,0,7.27,3.26,7.27,7.27,0,4.01-3.27,7.27-7.28,7.28-3.34,0-6.16-2.27-7.01-5.34h-58.58l-27.43,27.43c.69,1.11,1.1,2.42,1.1,3.83,0,4.01-3.26,7.27-7.27,7.27-1.95,0-3.77-.76-5.15-2.13-1.38-1.38-2.13-3.2-2.13-5.15,0-4.01,3.26-7.27,7.27-7.27"/>
    <path class="cls-3" d="m875.59,183.44h131.03l21.69-21.69h88.8c1.14-2.54,3.68-4.33,6.64-4.33,1.94,0,3.77.76,5.15,2.13,1.38,1.37,2.13,3.2,2.13,5.14s-.76,3.77-2.13,5.14-3.2,2.13-5.15,2.13c-3.7,0-6.76-2.78-7.21-6.36h-86.63l-21.69,21.7h-132.63c-.33,1.2-.96,2.3-1.86,3.21-1.38,1.38-3.2,2.13-5.15,2.13s-3.77-.76-5.14-2.13c-1.38-1.38-2.13-3.2-2.13-5.14s.76-3.77,2.13-5.14,3.2-2.13,5.14-2.13v1.17s0-1.17,0-1.17c3.34,0,6.15,2.26,7,5.34"/>
    <path class="cls-3" d="m857.28,165.2h132.04l28.23-28.24h123.54l21.84-21.84h22.3l16.1,16.1h136.7c.86-3.07,3.67-5.34,7.01-5.34,1.94,0,3.77.76,5.15,2.13,1.37,1.38,2.13,3.2,2.13,5.14,0,1.94-.75,3.77-2.13,5.14-1.38,1.38-3.2,2.13-5.15,2.13-3.34,0-6.16-2.27-7.01-5.34h-113.84c3.07.85,5.34,3.67,5.34,7,0,4.01-3.26,7.28-7.27,7.28-1.3,0-2.53-.35-3.59-.95l-18.21,18.21h-38.51l-49.71,49.71c.05.33.08.66.08,1,0,4.01-3.26,7.27-7.27,7.27s-7.28-3.26-7.28-7.28,3.26-7.27,7.27-7.27h0c2.19,0,4.15.98,5.49,2.52l49.83-49.82h38.51l17.08-17.08c-.6-1.06-.95-2.28-.95-3.58,0-3.34,2.26-6.15,5.33-7.01h-20.58l-16.1-16.1h-19.09s-21.84,21.83-21.84,21.83h-123.54l-28.23,28.24h-133.64c-.85,3.07-3.66,5.34-7.01,5.34-4.01,0-7.27-3.26-7.28-7.27,0-4.01,3.27-7.28,7.28-7.28,3.34,0,6.16,2.27,7.01,5.34"/>
    <path class="cls-3" d="m1196.18,233.87c0-4.01,3.26-7.27,7.27-7.28h0c1.94,0,3.77.76,5.14,2.13,1.37,1.37,2.13,3.2,2.13,5.14,0,1.94-.75,3.77-2.13,5.14-.91.9-2.01,1.54-3.21,1.87v18.29c3.07.85,5.34,3.67,5.34,7.01,0,4.01-3.27,7.27-7.28,7.27s-7.27-3.26-7.27-7.27c0-3.34,2.27-6.16,5.34-7.01v-18.29c-3.08-.85-5.34-3.67-5.34-7.01"/>
    <path class="cls-3" d="m1233.37,208.55h0c4.01,0,7.27,3.27,7.27,7.28,0,1.94-.76,3.77-2.13,5.14-1.37,1.37-3.2,2.13-5.14,2.13-3.34,0-6.16-2.27-7-5.34h-29.61l-13.36,13.35v28.05c1.2.33,2.31.96,3.21,1.87,1.38,1.38,2.13,3.2,2.13,5.14s-.76,3.77-2.13,5.14-3.2,2.13-5.15,2.13c-4.01,0-7.27-3.27-7.27-7.28,0-3.34,2.27-6.15,5.34-7.01v-29.66l15.62-15.62h31.22c.85-3.07,3.66-5.34,7-5.34"/>
    <path class="cls-3" d="m1356.95,133.16c0-4.01,3.26-7.27,7.28-7.28,4.01,0,7.27,3.27,7.27,7.28,0,3.34-2.27,6.15-5.34,7.01v41.68c1.2.33,2.31.96,3.21,1.87,1.37,1.38,2.13,3.2,2.13,5.14s-.76,3.77-2.13,5.15c-1.38,1.37-3.2,2.13-5.14,2.13s-3.77-.76-5.15-2.13c-1.37-1.37-2.13-3.2-2.13-5.14,0-3.34,2.27-6.15,5.34-7.01v-41.69c-3.08-.85-5.34-3.67-5.34-7.01"/>
    <path class="cls-3" d="m909.78,84.35c.28-.95.8-1.85,1.56-2.6,1.18-1.17,2.74-1.82,4.4-1.82s3.23.65,4.41,1.82,1.83,2.74,1.83,4.41-.65,3.23-1.83,4.41c-1.17,1.18-2.74,1.82-4.41,1.82s-3.23-.65-4.4-1.82c-.75-.75-1.27-1.65-1.56-2.6h-35.77l-37.23-37.23c-.89.48-1.9.74-2.95.74-1.66,0-3.23-.65-4.4-1.83-2.43-2.43-2.43-6.38,0-8.81,1.18-1.18,2.74-1.82,4.41-1.82s3.23.65,4.41,1.82c1.98,1.99,2.34,4.99,1.08,7.35l36.18,36.17h34.28Z"/>
    <path class="cls-3" d="m875.83,52.39c1.66,0,3.23.65,4.4,1.82,2.43,2.43,2.43,6.38,0,8.81-1.18,1.18-2.74,1.82-4.41,1.82s-3.23-.65-4.41-1.82c-1.18-1.18-1.82-2.74-1.82-4.41,0-1.04.26-2.05.74-2.94l-14.33-14.33c-.89.48-1.9.74-2.94.74-1.66,0-3.23-.65-4.41-1.82-2.43-2.43-2.43-6.38,0-8.81,1.17-1.18,2.74-1.83,4.41-1.83s3.23.65,4.41,1.83c1.98,1.98,2.34,4.99,1.08,7.34l14.33,14.33c.9-.48,1.9-.74,2.95-.74"/>
    <path class="cls-3" d="m803.73,41.69c1.66,0,3.23.65,4.41,1.83s1.82,2.74,1.82,4.4-.65,3.23-1.82,4.41c-.96.96-2.18,1.56-3.5,1.75l-.93,22.42,43.63,43.63h62.31l6.89,6.89c.89-.48,1.9-.74,2.94-.74,1.66,0,3.23.65,4.41,1.83,2.43,2.43,2.43,6.38,0,8.81-1.17,1.18-2.74,1.82-4.41,1.82s-3.23-.65-4.41-1.82c-1.98-1.99-2.34-4.99-1.08-7.34l-5.84-5.84h-62.3l-45.81-45.8,1.02-24.39c-.63-.3-1.21-.71-1.72-1.22-1.18-1.17-1.83-2.74-1.83-4.41s.65-3.23,1.83-4.4c1.18-1.18,2.74-1.83,4.4-1.83"/>
    <path class="cls-3" d="m916.19,53.38h-16.84c-.29.97-.82,1.86-1.56,2.6-1.17,1.18-2.74,1.83-4.41,1.83s-3.23-.65-4.4-1.82-1.83-2.74-1.83-4.41.65-3.23,1.82-4.41c1.18-1.18,2.74-1.82,4.41-1.82s3.23.65,4.41,1.82c.74.74,1.27,1.63,1.56,2.6h18.33l41.92,41.93c.98-.62,2.11-.95,3.3-.95,1.66,0,3.23.64,4.41,1.82,2.43,2.43,2.43,6.38,0,8.81-1.18,1.18-2.74,1.83-4.41,1.83s-3.23-.65-4.4-1.83c-1.18-1.18-1.83-2.74-1.83-4.4,0-.9.2-1.77.56-2.56l-41.04-41.04Z"/>
    <path class="cls-3" d="m862.53,110.24l-38.66-38.66c-1.01.67-2.19,1.03-3.43,1.03-1.66,0-3.23-.65-4.41-1.83-2.43-2.43-2.43-6.38,0-8.81,1.18-1.17,2.74-1.82,4.41-1.82s3.23.65,4.41,1.82c1.84,1.84,2.28,4.55,1.34,6.81l37.84,37.84h60.89l9.62-9.62c-1.26-2.35-.9-5.36,1.08-7.34,1.18-1.18,2.74-1.82,4.41-1.82s3.23.65,4.41,1.82c2.43,2.43,2.43,6.38,0,8.81-1.18,1.18-2.74,1.82-4.41,1.82-1.05,0-2.05-.26-2.95-.74l-10.67,10.67h-63.87Z"/>
    <path class="cls-3" d="m355.64,400c1.66,0,3.23-.65,4.4-1.82,1.18-1.18,1.83-2.74,1.82-4.41,0-1.66-.64-3.23-1.82-4.41-.74-.74-1.63-1.27-2.6-1.56v-28.21c2.56-.78,4.42-3.15,4.42-5.96,0-3.44-2.79-6.23-6.23-6.23s-6.23,2.79-6.23,6.23c0,1.67.65,3.23,1.83,4.41.74.74,1.63,1.27,2.6,1.56v28.2c-.97.29-1.86.82-2.6,1.56-1.18,1.18-1.83,2.74-1.83,4.4,0,3.43,2.8,6.23,6.23,6.23h0Z"/>
    <path class="cls-3" d="m361.28,170.04c0,3.43-2.8,6.23-6.23,6.23s-6.23-2.8-6.23-6.23c0-2.81,1.87-5.19,4.43-5.96v-32.43c-2.56-.78-4.43-3.15-4.43-5.96,0-3.43,2.8-6.23,6.23-6.23s6.23,2.79,6.23,6.23c0,2.81-1.87,5.19-4.43,5.96v32.43c2.56.78,4.43,3.15,4.43,5.96"/>
    <path class="cls-3" d="m315.85,235.62c-.74-.74-1.63-1.27-2.6-1.56v-46.41s18.51-18.52,18.51-18.52v-40.46c2.56-.78,4.43-3.15,4.43-5.96,0-3.43-2.79-6.23-6.23-6.23-3.44,0-6.23,2.8-6.23,6.23,0,2.81,1.87,5.19,4.42,5.96v38.97l-18.51,18.51v47.9c-.97.29-1.86.82-2.6,1.56-1.18,1.17-1.83,2.74-1.82,4.41,0,1.66.64,3.23,1.82,4.4s2.74,1.82,4.41,1.82h0c1.66,0,3.23-.64,4.4-1.82,1.17-1.18,1.82-2.74,1.82-4.41s-.65-3.23-1.82-4.4"/>
    <path class="cls-3" d="m285.26,196.11c0-3.43,2.8-6.23,6.23-6.23s6.23,2.8,6.23,6.23c0,2.82-1.88,5.21-4.46,5.97v86.89c.91.28,1.74.78,2.44,1.48,1.12,1.12,1.74,2.62,1.74,4.21,0,3.29-2.67,5.96-5.96,5.96s-5.96-2.67-5.96-5.96c0-2.67,1.77-4.93,4.19-5.69v-86.89c-2.58-.76-4.46-3.15-4.46-5.97"/>
    <path class="cls-3" d="m911.25,387.87v-146.9l30.07-14.07,31.79,31.79v58.24s27.61,27.61,27.61,27.61h78.82l12.62-11.75c-.53-1.01-.83-2.15-.83-3.36,0-4.01,3.26-7.27,7.27-7.27s7.27,3.27,7.27,7.27-3.26,7.28-7.27,7.28c-1.4,0-2.7-.4-3.81-1.09l-13.74,12.79h-81.93s-29.87-29.87-29.87-29.87v-58.25l-28.74-28.74-25.38,11.87v144.3c3.2.76,5.59,3.64,5.59,7.07,0,1.95-.76,3.77-2.13,5.14-1.37,1.38-3.2,2.13-5.14,2.13v-1.17,1.17c-1.95,0-3.77-.76-5.15-2.13-1.38-1.38-2.13-3.2-2.13-5.15,0-3.25,2.14-6.01,5.09-6.93"/>
    <path class="cls-3" d="m1176.13,307.63c4.01,0,7.27,3.27,7.27,7.27s-3.27,7.28-7.27,7.28h0c-1.3,0-2.53-.35-3.58-.95l-22.43,22.43h-43.4l-25.62,25.62h-99.6c-.85,3.07-3.67,5.34-7,5.34-1.95,0-3.77-.76-5.14-2.13-1.38-1.37-2.13-3.2-2.13-5.14,0-1.95.75-3.77,2.13-5.15,1.38-1.38,3.2-2.13,5.15-2.13,3.34,0,6.15,2.27,7,5.34h98l25.62-25.62h43.4s21.3-21.3,21.3-21.3c-.6-1.06-.95-2.28-.95-3.59,0-4.01,3.27-7.27,7.28-7.27"/>
    <path class="cls-3" d="m1299.78,287.99c0-1.95-.76-3.77-2.13-5.14-1.38-1.38-3.2-2.13-5.14-2.13s-3.77.76-5.15,2.13c-.9.9-1.54,2.01-1.86,3.21h-12.08l-.23-.18-.15.18h-30.6c-.85-3.07-3.67-5.34-7.01-5.34-1.94,0-3.77.76-5.14,2.13-1.38,1.38-2.13,3.2-2.13,5.15,0,4.01,3.26,7.27,7.27,7.27h0c3.34,0,6.15-2.27,7-5.34h27.51l-14.41,18.08c-.72-.23-1.48-.37-2.27-.37-1.95,0-3.78.76-5.15,2.13-1.38,1.37-2.13,3.2-2.13,5.14,0,1.94.76,3.77,2.13,5.14,1.38,1.37,3.2,2.13,5.14,2.13,4.01,0,7.27-3.26,7.27-7.27,0-1.82-.67-3.47-1.77-4.75l16.14-20.23h10.6c.33,1.2.96,2.3,1.86,3.21,1.37,1.37,3.2,2.13,5.15,2.13,4.01,0,7.27-3.26,7.27-7.27"/>
    <path class="cls-3" d="m1159.23,387.04c-3.34,0-6.16-2.27-7.01-5.34h-7.45c-.33,1.2-.96,2.31-1.86,3.21-1.38,1.38-3.2,2.13-5.14,2.13h0c-1.94,0-3.77-.76-5.14-2.13-1.38-1.38-2.13-3.2-2.13-5.14,0-4.01,3.26-7.27,7.27-7.27,1.95,0,3.77.76,5.14,2.13.91.9,1.54,2.01,1.87,3.21h7.45c.85-3.07,3.67-5.34,7.01-5.34,4.01,0,7.27,3.26,7.28,7.27,0,4.01-3.27,7.27-7.28,7.28"/>
    <path class="cls-3" d="m1186.92,241.88v-1.17s0,1.17,0,1.17c-3.34,0-6.16-2.27-7-5.34h-72.22l-19.94,19.95v16.72s-28.32,28.31-28.32,28.31c.42.92.66,1.93.66,3,0,4.01-3.27,7.27-7.28,7.27-4.01,0-7.27-3.27-7.27-7.28,0-1.94.76-3.77,2.13-5.14,1.38-1.38,3.2-2.13,5.14-2.13,1.53,0,2.96.48,4.13,1.29l26.94-26.93v-16.72l22.21-22.21h73.82c.85-3.07,3.67-5.34,7.01-5.34,4.01,0,7.27,3.27,7.27,7.28,0,1.94-.76,3.77-2.13,5.14-1.38,1.38-3.2,2.13-5.14,2.13"/>
    <path class="cls-3" d="m1309.45,307.09h0c-1.2,0-2.34-.3-3.34-.82l-28.67,28.67h-60.17c-.33,1.2-.96,2.31-1.87,3.21-1.37,1.38-3.2,2.13-5.14,2.13v-1.17s0,1.17,0,1.17c-4.01,0-7.27-3.26-7.27-7.27,0-4.01,3.27-7.27,7.28-7.28,3.34,0,6.16,2.27,7.01,5.34h58.58l27.43-27.43c-.69-1.11-1.1-2.42-1.1-3.83,0-4.01,3.26-7.27,7.27-7.27,1.94,0,3.77.76,5.15,2.13,1.37,1.38,2.13,3.2,2.13,5.15,0,4.01-3.26,7.27-7.27,7.27"/>
    <path class="cls-3" d="m1126.89,287.99c0,4.01-3.26,7.27-7.27,7.28h0c-1.94,0-3.77-.76-5.14-2.13s-2.13-3.2-2.13-5.14c0-1.94.75-3.77,2.13-5.14.91-.9,2.01-1.54,3.21-1.87v-18.29c-3.07-.85-5.34-3.67-5.34-7.01,0-4.01,3.27-7.27,7.28-7.27s7.27,3.26,7.27,7.27c0,3.34-2.27,6.16-5.34,7.01v18.29c3.08.85,5.34,3.67,5.34,7.01"/>
    <path class="cls-3" d="m1089.7,313.31h0c-4.01,0-7.27-3.27-7.27-7.28,0-1.94.76-3.77,2.13-5.14,1.37-1.37,3.2-2.13,5.14-2.13,3.34,0,6.16,2.27,7,5.34h29.61l13.36-13.35v-28.05c-1.2-.33-2.31-.96-3.21-1.87-1.37-1.38-2.13-3.2-2.13-5.14s.76-3.77,2.13-5.14c1.38-1.37,3.2-2.13,5.15-2.13,4.01,0,7.27,3.26,7.27,7.27,0,3.34-2.27,6.15-5.34,7.01v29.66l-15.62,15.62h-31.22c-.85,3.07-3.66,5.34-7,5.34"/>
    <path class="cls-3" d="m966.12,388.7c0,4.01-3.26,7.27-7.28,7.28-4.01,0-7.27-3.27-7.27-7.28,0-3.34,2.27-6.15,5.34-7v-41.68c-1.2-.33-2.31-.96-3.21-1.87-1.38-1.38-2.13-3.2-2.13-5.14s.76-3.77,2.13-5.14c1.37-1.38,3.2-2.13,5.14-2.13s3.77.76,5.14,2.13c1.38,1.37,2.13,3.2,2.13,5.14,0,3.34-2.27,6.16-5.34,7.01v41.69c3.08.85,5.34,3.66,5.34,7.01"/>
    <path class="cls-3" d="m193.53,229.46c0-3.43,2.79-6.23,6.23-6.23s6.23,2.8,6.23,6.23c0,2.69-1.72,4.98-4.12,5.85v17.06h10.21c.93-2.28,3.16-3.9,5.77-3.9,1.66,0,3.23.65,4.41,1.82,1.18,1.18,1.82,2.74,1.82,4.41s-.65,3.23-1.82,4.4c-1.18,1.18-2.74,1.83-4.41,1.83-2.89,0-5.32-1.98-6.02-4.66h-24.31c-.3.92-.81,1.76-1.51,2.45-1.18,1.18-2.74,1.83-4.4,1.83-3.43,0-6.23-2.8-6.23-6.23s2.79-6.23,6.23-6.23c1.66,0,3.23.65,4.41,1.82.7.7,1.21,1.54,1.51,2.46h10.45v-16.95c-2.56-.77-4.44-3.15-4.44-5.96"/>
    <path class="cls-3" d="m360.41,332.11c-3.43,0-6.23-2.8-6.23-6.23s2.8-6.23,6.23-6.23c2.69,0,4.98,1.72,5.85,4.12h17.06v-10.2c-2.28-.93-3.9-3.16-3.9-5.77,0-1.66.65-3.23,1.82-4.41,1.18-1.17,2.74-1.82,4.41-1.82s3.23.65,4.4,1.82c1.18,1.18,1.83,2.74,1.83,4.41,0,2.89-1.98,5.32-4.66,6.02v24.31c.92.3,1.76.81,2.45,1.51,1.18,1.18,1.83,2.74,1.83,4.41,0,3.43-2.8,6.23-6.23,6.23s-6.23-2.8-6.23-6.23c0-1.66.65-3.23,1.82-4.41.7-.7,1.54-1.21,2.45-1.51v-10.45h-16.95c-.77,2.56-3.15,4.44-5.96,4.44"/>
    <path class="cls-3" d="m291.54,348.74c1.66,0,3.23-.65,4.41-1.82,1.18-1.18,1.82-2.74,1.82-4.41,0-.57-.08-1.13-.23-1.66l29.14-26.22c.94.57,2.04.91,3.22.91,3.43,0,6.23-2.8,6.23-6.23,0-3.43-2.8-6.23-6.23-6.23s-6.23,2.8-6.23,6.23c0,.95.22,1.84.59,2.64l-9.11,8.2-5.06-5.06c.47-.88.74-1.88.74-2.94,0-3.43-2.8-6.23-6.23-6.23h0c-3.43,0-6.23,2.8-6.23,6.23,0,3.43,2.8,6.23,6.23,6.23,1.06,0,2.06-.27,2.94-.74l4.92,4.92-16.9,15.2c-1.12-.96-2.54-1.49-4.03-1.49h0c-3.43,0-6.23,2.8-6.23,6.23s2.8,6.23,6.23,6.23"/>

</svg>