<?xml version="1.0" encoding="UTF-8"?>
<svg id="Ebene_1" data-name="Ebene 1" xmlns="http://www.w3.org/2000/svg" viewBox="0 0 1370 440">
  <defs>
    <style>
      .cls-1 {
        stroke: #f9b104;
      }

      .cls-1, .cls-2, .cls-3, .cls-4, .cls-5, .cls-6, .cls-7, .cls-8, .cls-9, .cls-10, .cls-11 {
        fill: none;
        stroke-miterlimit: 10;
        stroke-width: 2.5px;
      }

      .cls-2 {
        stroke: #971b30;
      }

      .cls-3 {
        stroke: #7ab729;
      }

      .cls-4 {
        stroke: #2fb1e7;
      }

      .cls-5 {
        stroke: #c6143d;
      }

      .cls-6 {
        stroke: #e97721;
      }

      .cls-7 {
        stroke: #168544;
      }

      .cls-8 {
        stroke: #19233f;
      }

      .cls-9 {
        stroke: #3f758f;
      }

      .cls-10 {
        stroke: #8c9fb1;
      }

      .cls-11 {
        stroke: #005fa8;
      }
    </style>
  </defs>
  <path class="cls-7" d="m2163.15,367.85c-447.82,164.18-739.46-82.21-1057.98-120.74-318.52-38.5-521.48,173-873.06,132.88C-119.47,339.86-247.33,81.99-555.97,20.94"/>
  <path class="cls-10" d="m-534.98,40.69C-216.69,136.61-75.89,328.04,270.54,362.79c346.44,34.76,548.03-112.3,867.19-78.71,319.17,33.56,595.06,209.32,1028.18,53.76"/>
  <path class="cls-1" d="m-513.99,60.45C-186.06,191.23-32.32,316.22,308.97,345.61c341.29,29.39,541.52-53.23,861.33-24.59,319.81,28.64,579.97,133.75,998.36-13.21"/>
  <path class="cls-5" d="m-493,80.21C-155.42,245.87,11.25,304.4,347.4,328.42c336.15,24.02,535.01,5.84,855.47,29.56,320.46,23.71,564.87,58.17,968.53-80.2"/>
  <path class="cls-9" d="m-472,99.97C-124.79,300.49,54.82,292.58,385.83,311.24c331.01,18.66,528.5,64.92,849.61,83.7,321.11,18.78,549.78-17.4,938.7-147.16"/>
  <path class="cls-8" d="m-451.01,119.73C-94.15,355.11,98.39,280.76,424.26,294.05c325.87,13.29,521.99,123.99,843.74,137.83,321.75,13.85,534.69-92.97,908.91-214.14"/>
  <path class="cls-6" d="m-430.02,139.49C-63.52,409.73,141.97,268.94,462.69,276.86c320.72,7.94,515.48,183.06,837.88,191.98,322.4,8.92,519.59-168.57,879.09-281.13"/>
  <path class="cls-4" d="m-409.03,159.27C-32.88,464.35,185.54,257.11,501.12,259.69c315.58,2.55,508.97,242.12,832.01,246.1,323.04,3.99,504.5-244.14,849.26-348.12"/>
  <path class="cls-3" d="m-388.03,179.03C-2.24,518.97,229.11,245.3,539.55,242.49c310.44-2.82,502.46,301.2,826.15,300.26,323.69-.95,489.41-319.71,819.43-415.07"/>
  <path class="cls-8" d="m-367.04,198.79c395.43,374.8,639.73,34.68,945.02,26.53,305.3-8.18,495.95,360.26,820.28,354.38,324.34-5.87,474.31-395.28,789.64-482.06"/>
  <path class="cls-2" d="m-346.05,218.55c405.08,409.66,662.31,3.11,962.46-10.43,300.15-13.54,489.44,419.34,814.42,408.53,324.98-10.81,459.22-470.88,759.82-549.04"/>
  <path class="cls-11" d="m-325.06,238.3c414.72,444.54,684.88-28.44,979.9-47.35,295.01-18.91,482.93,478.4,808.56,462.66,325.63-15.74,444.12-546.45,729.99-616"/>
</svg>